<svg xmlns="http://www.w3.org/2000/svg" xmlns:xlink="http://www.w3.org/1999/xlink" width="360" zoomAndPan="magnify" viewBox="0 0 270 269.999989" height="360" preserveAspectRatio="xMidYMid meet" version="1.0"><defs><filter x="0%" y="0%" width="100%" height="100%" id="2b46fd3509"><feColorMatrix values="0 0 0 0 1 0 0 0 0 1 0 0 0 0 1 0 0 0 1 0" color-interpolation-filters="sRGB"/></filter><mask id="1d4b2173a5"><g filter="url(#2b46fd3509)"><rect x="-27" width="324" fill="#000000" y="-26.999999" height="323.999987" fill-opacity="0.86"/></g></mask><clipPath id="91ed6614d9"><rect x="0" width="105" y="0" height="112"/></clipPath></defs><g mask="url(#1d4b2173a5)"><g transform="matrix(1, 0, 0, 1, 82, 78)"><g clip-path="url(#91ed6614d9)"><path fill="#f1f1f1" d="M 1.15625 4.863281 L 1.15625 109.136719 C 1.15625 109.386719 1.203125 109.621094 1.296875 109.851562 C 1.390625 110.078125 1.527344 110.28125 1.703125 110.453125 C 1.875 110.628906 2.078125 110.765625 2.304688 110.859375 C 2.535156 110.953125 2.769531 111 3.019531 111 L 84.949219 111 C 85.195312 111 85.433594 110.953125 85.660156 110.859375 C 85.890625 110.765625 86.089844 110.628906 86.265625 110.453125 C 86.441406 110.28125 86.574219 110.078125 86.667969 109.851562 C 86.765625 109.621094 86.8125 109.386719 86.8125 109.136719 L 86.8125 77.96875 L 100.480469 57 L 102.640625 53.703125 C 102.914062 53.285156 103.144531 52.839844 103.328125 52.375 C 103.515625 51.910156 103.65625 51.429688 103.75 50.9375 C 103.839844 50.445312 103.882812 49.949219 103.878906 49.445312 C 103.875 48.945312 103.820312 48.449219 103.714844 47.957031 C 103.613281 47.46875 103.464844 46.992188 103.269531 46.53125 C 103.070312 46.066406 102.832031 45.628906 102.550781 45.214844 C 102.265625 44.800781 101.945312 44.417969 101.589844 44.066406 C 101.230469 43.714844 100.84375 43.402344 100.421875 43.128906 L 100.011719 42.867188 C 99.59375 42.59375 99.152344 42.359375 98.6875 42.171875 C 98.21875 41.984375 97.742188 41.84375 97.246094 41.753906 C 96.753906 41.660156 96.257812 41.613281 95.753906 41.621094 C 95.253906 41.625 94.757812 41.679688 94.265625 41.78125 C 93.773438 41.882812 93.296875 42.035156 92.835938 42.230469 C 92.375 42.429688 91.9375 42.667969 91.523438 42.953125 C 91.109375 43.234375 90.726562 43.554688 90.375 43.914062 C 90.023438 44.273438 89.710938 44.664062 89.4375 45.082031 L 87.742188 47.691406 L 86.773438 49.179688 L 86.773438 18.304688 C 86.765625 17.816406 86.59375 17.394531 86.253906 17.039062 L 72.789062 3.539062 C 72.445312 3.179688 72.023438 3 71.523438 3 L 2.960938 3 C 2.71875 3.007812 2.488281 3.058594 2.265625 3.15625 C 2.046875 3.253906 1.851562 3.390625 1.683594 3.566406 C 1.511719 3.738281 1.382812 3.9375 1.292969 4.164062 C 1.203125 4.386719 1.15625 4.621094 1.15625 4.863281 Z M 77.5 85.65625 L 70.332031 80.964844 L 89.773438 51.152344 L 96.941406 55.84375 Z M 69.289062 84.578125 L 74.449219 87.949219 L 68.695312 91.113281 Z M 98.058594 45.828125 L 98.46875 46.089844 C 98.691406 46.234375 98.898438 46.398438 99.085938 46.582031 C 99.277344 46.765625 99.445312 46.96875 99.597656 47.1875 C 99.746094 47.40625 99.875 47.636719 99.980469 47.882812 C 100.082031 48.125 100.164062 48.378906 100.21875 48.636719 C 100.273438 48.898438 100.300781 49.160156 100.304688 49.425781 C 100.304688 49.691406 100.28125 49.953125 100.234375 50.214844 C 100.183594 50.472656 100.109375 50.726562 100.007812 50.972656 C 99.910156 51.21875 99.785156 51.453125 99.640625 51.675781 L 98.894531 52.808594 L 91.726562 48.136719 L 92.472656 46.980469 C 92.617188 46.761719 92.785156 46.554688 92.96875 46.367188 C 93.15625 46.179688 93.359375 46.011719 93.578125 45.863281 C 93.796875 45.714844 94.027344 45.589844 94.273438 45.484375 C 94.515625 45.382812 94.765625 45.304688 95.027344 45.25 C 95.285156 45.195312 95.546875 45.167969 95.8125 45.167969 C 96.078125 45.164062 96.339844 45.1875 96.601562 45.238281 C 96.859375 45.289062 97.113281 45.363281 97.359375 45.460938 C 97.601562 45.558594 97.835938 45.683594 98.058594 45.828125 Z M 81.300781 17.171875 L 72.695312 17.171875 L 72.695312 8.585938 Z M 4.769531 6.59375 L 69.085938 6.59375 L 69.085938 18.996094 C 69.085938 19.242188 69.132812 19.480469 69.226562 19.707031 C 69.320312 19.9375 69.457031 20.136719 69.628906 20.3125 C 69.804688 20.488281 70.007812 20.621094 70.234375 20.714844 C 70.460938 20.808594 70.699219 20.855469 70.945312 20.855469 L 83.21875 20.855469 L 83.21875 54.671875 L 66.308594 80.445312 C 66.253906 80.542969 66.210938 80.648438 66.179688 80.761719 C 66.132812 80.875 66.097656 80.992188 66.066406 81.113281 L 64.875 94.242188 C 64.851562 94.570312 64.910156 94.886719 65.054688 95.1875 C 65.195312 95.484375 65.402344 95.730469 65.675781 95.917969 C 65.964844 96.082031 66.277344 96.167969 66.609375 96.167969 C 66.941406 96.167969 67.25 96.082031 67.539062 95.917969 L 78.84375 89.699219 C 79.027344 89.605469 79.183594 89.472656 79.308594 89.308594 L 79.402344 89.195312 L 83.125 83.609375 L 83.125 107.40625 L 4.769531 107.40625 Z M 4.769531 6.59375 " fill-opacity="1" fill-rule="nonzero"/><path fill="#f1f1f1" d="M 16.386719 29.777344 L 72.25 29.960938 C 72.527344 30.03125 72.808594 30.039062 73.089844 29.976562 C 73.367188 29.917969 73.621094 29.800781 73.847656 29.625 C 74.074219 29.449219 74.25 29.230469 74.375 28.972656 C 74.5 28.714844 74.566406 28.441406 74.566406 28.15625 C 74.566406 27.871094 74.5 27.597656 74.375 27.339844 C 74.25 27.082031 74.074219 26.863281 73.847656 26.6875 C 73.621094 26.511719 73.367188 26.394531 73.089844 26.335938 C 72.808594 26.277344 72.527344 26.28125 72.25 26.351562 L 16.386719 26.183594 C 16.109375 26.105469 15.824219 26.097656 15.542969 26.152344 C 15.257812 26.207031 15 26.324219 14.769531 26.5 C 14.539062 26.675781 14.359375 26.894531 14.230469 27.15625 C 14.101562 27.414062 14.039062 27.691406 14.039062 27.980469 C 14.039062 28.269531 14.101562 28.542969 14.230469 28.804688 C 14.359375 29.066406 14.539062 29.28125 14.769531 29.457031 C 15 29.636719 15.257812 29.75 15.542969 29.808594 C 15.824219 29.863281 16.109375 29.851562 16.386719 29.777344 Z M 16.386719 29.777344 " fill-opacity="1" fill-rule="nonzero"/><path fill="#f1f1f1" d="M 16.386719 46.851562 L 72.25 47.039062 C 72.496094 47.039062 72.734375 46.992188 72.960938 46.894531 C 73.191406 46.800781 73.390625 46.667969 73.566406 46.492188 C 73.742188 46.316406 73.875 46.117188 73.96875 45.886719 C 74.066406 45.660156 74.113281 45.421875 74.113281 45.175781 C 74.113281 44.929688 74.066406 44.691406 73.96875 44.464844 C 73.875 44.234375 73.742188 44.035156 73.566406 43.859375 C 73.390625 43.683594 73.191406 43.550781 72.960938 43.457031 C 72.734375 43.359375 72.496094 43.3125 72.25 43.3125 L 16.386719 43.128906 C 16.109375 43.050781 15.824219 43.042969 15.542969 43.097656 C 15.257812 43.152344 15 43.269531 14.769531 43.445312 C 14.539062 43.621094 14.359375 43.839844 14.230469 44.097656 C 14.101562 44.359375 14.039062 44.632812 14.039062 44.925781 C 14.039062 45.214844 14.101562 45.488281 14.230469 45.75 C 14.359375 46.007812 14.539062 46.226562 14.769531 46.402344 C 15 46.578125 15.257812 46.695312 15.542969 46.75 C 15.824219 46.808594 16.109375 46.796875 16.386719 46.722656 Z M 16.386719 46.851562 " fill-opacity="1" fill-rule="nonzero"/><path fill="#f1f1f1" d="M 60.742188 60.519531 L 16.386719 60.332031 C 16.109375 60.261719 15.832031 60.257812 15.550781 60.316406 C 15.269531 60.375 15.015625 60.496094 14.789062 60.671875 C 14.5625 60.847656 14.386719 61.066406 14.261719 61.324219 C 14.136719 61.582031 14.074219 61.851562 14.074219 62.140625 C 14.074219 62.425781 14.136719 62.699219 14.261719 62.957031 C 14.386719 63.214844 14.5625 63.429688 14.789062 63.605469 C 15.015625 63.785156 15.269531 63.902344 15.550781 63.960938 C 15.832031 64.019531 16.109375 64.015625 16.386719 63.945312 L 60.742188 64.113281 C 61.023438 64.1875 61.304688 64.199219 61.589844 64.144531 C 61.875 64.085938 62.132812 63.972656 62.363281 63.796875 C 62.59375 63.621094 62.773438 63.402344 62.898438 63.140625 C 63.027344 62.882812 63.09375 62.605469 63.09375 62.316406 C 63.09375 62.027344 63.027344 61.75 62.898438 61.492188 C 62.773438 61.230469 62.59375 61.011719 62.363281 60.835938 C 62.132812 60.660156 61.875 60.542969 61.589844 60.488281 C 61.304688 60.433594 61.023438 60.441406 60.742188 60.519531 Z M 60.742188 60.519531 " fill-opacity="1" fill-rule="nonzero"/><path fill="#f1f1f1" d="M 54.800781 86.792969 L 17.152344 86.550781 C 16.746094 86.660156 16.414062 86.882812 16.160156 87.21875 C 15.90625 87.550781 15.777344 87.929688 15.777344 88.347656 C 15.777344 88.769531 15.90625 89.144531 16.160156 89.480469 C 16.414062 89.8125 16.746094 90.035156 17.152344 90.144531 L 54.839844 90.332031 C 55.117188 90.402344 55.398438 90.40625 55.679688 90.347656 C 55.957031 90.289062 56.210938 90.167969 56.4375 89.992188 C 56.664062 89.816406 56.839844 89.597656 56.964844 89.339844 C 57.089844 89.082031 57.15625 88.8125 57.15625 88.523438 C 57.15625 88.238281 57.089844 87.964844 56.964844 87.707031 C 56.839844 87.449219 56.664062 87.234375 56.4375 87.058594 C 56.210938 86.878906 55.957031 86.761719 55.679688 86.703125 C 55.398438 86.644531 55.117188 86.648438 54.839844 86.71875 Z M 54.800781 86.792969 " fill-opacity="1" fill-rule="nonzero"/></g></g></g></svg>